<svg width="127" height="30" viewBox="0 0 127 30" fill="none" xmlns="http://www.w3.org/2000/svg">
<g clip-path="url(#clip0)">
<path d="M27.6094 4.45314C27.2344 4.07813 27.0469 3.65626 27.0469 3.14063C27.0469 2.625 27.2344 2.15625 27.6094 1.78125C27.9844 1.40625 28.4531 1.21875 29.0156 1.21875C29.5781 1.21875 30.0469 1.40625 30.4219 1.73438C30.75 2.10938 30.9375 2.53125 30.9375 3.04688C30.9375 3.60938 30.75 4.03126 30.375 4.40626C30 4.78126 29.5313 4.96876 28.9688 4.96876C28.4063 4.96876 27.9844 4.78126 27.6094 4.45314ZM27.5625 8.06252H30.4688V24.0001H27.5625V8.06252Z" fill="#fd9800"/>
<path d="M59.3907 8.0625L53.8594 20.8126L48.2813 8.0625H39.2344V4.54688H36.3281V8.01564H33.375V10.4063H36.3281V19.1719C36.3281 20.7657 36.75 22.0313 37.6406 22.8751C38.5313 23.7188 39.75 24.1876 41.3907 24.1876C42.0469 24.1876 42.7032 24.0938 43.3125 23.9063C43.9219 23.7188 44.4375 23.4376 44.8594 23.0626L43.9688 21.0001C43.3594 21.5157 42.6094 21.7501 41.7188 21.7501C40.9219 21.7501 40.3125 21.5157 39.8906 21.0469C39.4688 20.5782 39.2344 19.9219 39.2344 19.0782V10.4063H46.3125L52.3126 23.9532L51.7969 25.0782C51.4219 25.9688 51.0001 26.6251 50.5313 27.0001C50.0626 27.3751 49.4532 27.5626 48.7501 27.5626C47.6719 27.5626 46.7344 27.1876 45.8907 26.3907L44.6719 28.547C45.1407 29.0157 45.75 29.3907 46.5 29.6251C47.25 29.8595 48.0001 30.0001 48.7501 30.0001C50.0157 30.0001 51.1407 29.672 52.0313 29.0157C52.9219 28.3595 53.7188 27.1876 54.4219 25.5938L62.1564 8.0625H59.3907Z" fill="#fd9800"/>
<path d="M96.5626 18.8438H92.5782V24.0001H89.6719V18.8438H77.9531V16.7344L88.7344 2.95312H91.9688L81.6563 16.2657H89.7657V11.6719H92.5782V16.2657H96.5626V18.8438Z" fill="#fd9800"/>
<path d="M66.9395 21.3751L73.3614 15.1875C74.7207 13.9219 75.6114 12.75 76.0801 11.7657C76.5489 10.7813 76.7832 9.70315 76.7832 8.57814C76.7832 6.75001 76.127 5.34376 74.8145 4.31251C73.502 3.28125 71.7676 2.71875 69.5645 2.71875C67.9238 2.71875 66.4238 3 65.1113 3.5625C64.5488 3.79688 64.0332 4.07813 63.5645 4.40626L64.9238 6.75001C66.0957 5.85939 67.5488 5.39063 69.3301 5.39063C70.7832 5.39063 71.8614 5.71876 72.6582 6.32814C73.4082 6.93751 73.8301 7.78127 73.8301 8.90627C73.8301 9.65627 73.6426 10.4063 73.2676 11.1094C72.8926 11.8594 72.1895 12.7032 71.1582 13.7344L62.5801 22.0313V24.0938H77.7208V21.4688H66.9395V21.3751Z" fill="#fd9800"/>
<path d="M21.8907 11.9528C21.8907 14.1559 21.0001 16.3591 19.4063 17.906C17.8126 19.4528 15.6094 20.3435 13.4063 20.3435C11.2032 20.3435 9.00003 19.4528 7.40627 17.906C5.81252 16.3591 4.87502 14.2028 4.92189 11.9528C4.92189 9.74968 5.81252 7.54655 7.40627 5.99967C9.00003 4.45279 11.2032 3.56216 13.4063 3.56216C15.4219 3.56216 17.3907 4.26528 18.8907 5.53091L20.6251 3.56216C18.6094 1.87465 15.9844 0.890274 13.3594 0.937149C10.4532 0.937149 7.5469 2.10903 5.48439 4.12466C3.37501 6.14029 2.15626 9.04655 2.15626 11.9528C2.15626 14.2966 2.95313 16.6403 4.35939 18.5622L0 24.8904L0.984378 25.8747L7.50002 21.3278C9.28128 22.406 11.3438 23.0153 13.4063 23.0153C16.3126 23.0153 19.2188 21.8435 21.2813 19.8278C23.3907 17.8122 24.6095 14.9059 24.6095 11.9997H21.8907V11.9528Z" fill="#fd9800"/>
<path d="M99.2793 23.7188C98.9981 23.4375 98.8574 23.1094 98.8574 22.7344C98.8574 22.3594 98.9981 22.0313 99.2793 21.75C99.5606 21.4688 99.8887 21.375 100.217 21.375C100.592 21.375 100.92 21.5156 101.154 21.75C101.436 22.0313 101.576 22.3125 101.576 22.7344C101.576 23.1094 101.436 23.4375 101.154 23.7188C100.873 24 100.545 24.1406 100.217 24.1406C99.8887 24.1406 99.5606 24 99.2793 23.7188Z" fill="#fd9800"/>
<path d="M104.67 0H106.264V24.0001H104.67V0Z" fill="#fd9800"/>
<path d="M126.279 7.125L118.639 24.0001H116.998L109.404 7.125H111.139L117.889 22.2188L124.686 7.125H126.279Z" fill="#fd9800"/>
</g>
<defs>
<clipPath id="clip0">
<rect width="127" height="30" fill="#fd9800"/>
</clipPath>
</defs>
</svg>
