<svg xmlns="http://www.w3.org/2000/svg" xmlns:xlink="http://www.w3.org/1999/xlink" width="69" height="24" viewBox="0 0 69 24">
    <defs>
        <filter id="a" width="101.2%" height="125%" x="-.6%" y="-12.5%" filterUnits="objectBoundingBox">
            <feOffset dy="2" in="SourceAlpha" result="shadowOffsetOuter1"/>
            <feGaussianBlur in="shadowOffsetOuter1" result="shadowBlurOuter1" stdDeviation="1"/>
            <feColorMatrix in="shadowBlurOuter1" result="shadowMatrixOuter1" values="0 0 0 0 0.836192255 0 0 0 0 0.836192255 0 0 0 0 0.836192255 0 0 0 0.5 0"/>
            <feMerge>
                <feMergeNode in="shadowMatrixOuter1"/>
                <feMergeNode in="SourceGraphic"/>
            </feMerge>
        </filter>
        <path id="b" d="M0 .296h65v20H0z"/>
    </defs>
    <g fill="none" fill-rule="evenodd" filter="url(#a)" transform="translate(2 -1)">
        <mask id="c" fill="#fff">
            <use xlink:href="#b"/>
        </mask>
        <g fill-rule="nonzero" mask="url(#c)">
            <path fill="#E01765" d="M3.004 5.848C1.324 5.848.22 4.792.22 3.424.22 2.056 1.324 1 3.004 1c1.68 0 2.784.984 2.784 2.352 0 1.44-1.104 2.496-2.784 2.496z"/>
            <path fill="#443642" d="M.724 20.296V7.288h4.56v13.008zM16.708 7.072c3.048 0 5.376 1.752 5.376 5.784v7.44h-4.56V13.6c0-1.872-.816-2.664-2.136-2.664-1.464 0-2.592.912-2.592 3.072v6.288h-4.56V7.288h4.344v1.416c1.032-1.08 2.496-1.632 4.128-1.632zM31.588 20.512c-4.368 0-7.464-2.784-7.464-6.744 0-3.912 3.096-6.696 7.464-6.696 2.952 0 5.208 1.32 6.096 3.576l-3.528 1.8c-.624-1.224-1.536-1.752-2.592-1.752-1.584 0-2.832 1.104-2.832 3.072 0 2.016 1.248 3.12 2.832 3.12 1.056 0 1.968-.528 2.592-1.752l3.528 1.8c-.888 2.256-3.144 3.576-6.096 3.576zM47.884 7.072c3.048 0 5.376 1.752 5.376 5.784v7.44H48.7V13.6c0-1.872-.816-2.664-2.136-2.664-1.464 0-2.592.912-2.592 3.072v6.288h-4.56V2.488h4.56v6c1.008-.936 2.376-1.416 3.912-1.416z"/>
            <path fill="#3EB890" d="M55.924 10.504l-.288-7.008h3.84l-.312 7.008z"/>
            <path fill="#E8A723" d="M61.204 10.504l-.288-7.008h3.84l-.312 7.008z"/>
        </g>
    </g>
</svg>
